<svg xmlns="http://www.w3.org/2000/svg" xmlns:xlink="http://www.w3.org/1999/xlink" width="500" zoomAndPan="magnify" viewBox="0 0 375 374.999991" height="500" preserveAspectRatio="xMidYMid meet" version="1.0"><defs><g/></defs><rect x="-37.5" width="450" fill="#ffffff" y="-37.499999" height="449.999989" fill-opacity="1"/><rect x="-37.5" width="450" fill="#000000" y="-37.499999" height="449.999989" fill-opacity="1"/><path stroke-linecap="butt" transform="matrix(1.633069, 0, 0, 1.633069, 261.9715, -21.52969)" fill="none" stroke-linejoin="miter" d="M 16.519647 78.785725 L 16.519647 50.086879 L 47.371265 50.086879 L 47.371265 78.785725 Z M 16.519647 209.999586 L 16.519647 92.67589 L 47.371265 92.67589 L 47.371265 209.999586 Z M 16.519647 209.999586 " stroke="#ffbd59" stroke-width="7.167713" stroke-opacity="1" stroke-miterlimit="4"/><g fill="#ffffff" fill-opacity="1"><g transform="translate(264.063869, 321.414739)"><g><path d="M 24.84375 -214.296875 L 24.84375 -261.109375 L 75.265625 -261.109375 L 75.265625 -214.296875 Z M 24.84375 0 L 24.84375 -191.609375 L 75.265625 -191.609375 L 75.265625 0 Z M 24.84375 0 "/></g></g></g><path stroke-linecap="butt" transform="matrix(1.002163, 0, 0, 1.002163, 10.83876, -10.055201)" fill="none" stroke-linejoin="miter" d="M 131.088596 119.063259 C 112.12961 119.063259 97.045055 126.480807 85.838828 141.312004 C 74.683273 156.147099 69.109393 177.281068 69.109393 204.713911 C 69.109393 230.533057 74.406528 251.023886 85.000797 266.190295 C 95.649636 281.360603 110.679622 288.941858 130.082959 288.941858 C 144.469805 288.941858 156.346457 285.012858 165.716811 277.150959 C 175.083267 269.285163 181.358754 257.798293 184.535476 242.686453 L 235.974979 242.686453 C 230.233493 271.962964 218.048915 294.433884 199.42514 310.103112 C 180.855936 325.717771 157.406663 333.5251 129.08122 333.5251 C 106.21662 333.5251 86.337749 328.337104 69.444606 317.965011 C 52.547565 307.538348 39.528853 292.621399 30.380674 273.218061 C 21.236394 253.810825 16.664253 230.868269 16.664253 204.378698 C 16.664253 177.838456 21.404 154.80625 30.883493 135.289875 C 40.362986 115.773501 53.662341 100.774698 70.781557 90.289567 C 87.955343 79.753766 107.725076 74.483916 130.082959 74.483916 C 149.490195 74.483916 166.944624 78.276493 182.446246 85.857748 C 198.002437 93.384435 210.409191 103.729244 219.666509 116.888277 C 228.923827 129.992741 234.357385 144.882405 235.974979 161.553373 L 184.535476 161.553373 C 177.90139 133.22793 160.084464 119.063259 131.088596 119.063259 Z M 131.088596 119.063259 " stroke="#004aad" stroke-width="25.695225" stroke-opacity="1" stroke-miterlimit="4"/><g fill="#ffffff" fill-opacity="1"><g transform="translate(12.451616, 317.652191)"><g><path d="M 129.78125 -208.40625 C 110.78125 -208.40625 95.671875 -200.96875 84.453125 -186.09375 C 73.242188 -171.21875 67.640625 -150.046875 67.640625 -122.578125 C 67.640625 -96.710938 72.957031 -76.164062 83.59375 -60.9375 C 94.238281 -45.71875 109.289062 -38.109375 128.75 -38.109375 C 143.175781 -38.109375 155.078125 -42.054688 164.453125 -49.953125 C 173.835938 -57.847656 180.132812 -69.351562 183.34375 -84.46875 L 234.84375 -84.46875 C 229.125 -55.164062 216.9375 -32.671875 198.28125 -16.984375 C 179.625 -1.304688 156.101562 6.53125 127.71875 6.53125 C 104.832031 6.53125 84.921875 1.320312 67.984375 -9.09375 C 51.046875 -19.507812 38 -34.445312 28.84375 -53.90625 C 19.6875 -73.363281 15.109375 -96.367188 15.109375 -122.921875 C 15.109375 -149.472656 19.859375 -172.53125 29.359375 -192.09375 C 38.859375 -211.664062 52.191406 -226.71875 69.359375 -237.25 C 86.523438 -247.78125 106.320312 -253.046875 128.75 -253.046875 C 148.207031 -253.046875 165.71875 -249.269531 181.28125 -241.71875 C 196.851562 -234.164062 209.269531 -223.804688 218.53125 -210.640625 C 227.800781 -197.484375 233.238281 -182.546875 234.84375 -165.828125 L 183.34375 -165.828125 C 176.707031 -194.210938 158.851562 -208.40625 129.78125 -208.40625 Z M 129.78125 -208.40625 "/></g></g></g></svg>